<svg width="143" height="28" viewBox="0 0 143 28" fill="none" xmlns="http://www.w3.org/2000/svg">
<g clip-path="url(#clip0_1_1018)">
<path d="M1.92133 9.35415C3.42431 7.24596 5.4851 6.19186 7.89452 6.19186C12.2795 6.19186 15.6806 9.81483 15.6806 14.1249C15.6806 18.435 12.3725 22.1127 7.9565 22.1127C5.60906 22.1127 3.57151 21.1445 1.92908 19.1456V27.2738H0V6.58226H1.92133V9.34635V9.35415ZM1.78188 14.2264C1.78188 17.99 4.67163 20.3324 7.75507 20.3324C11.0942 20.3324 13.6973 17.4824 13.6973 14.1718C13.6973 10.8611 11.2104 8.06581 7.75507 8.06581C4.29976 8.06581 1.78188 10.7206 1.78188 14.2264Z" fill="#D92C27"/>
<path d="M19.4148 14.3123C19.5 17.7948 21.8474 20.3324 25.0781 20.3324C28.3087 20.3324 29.7187 18.5365 30.8266 16.7094L32.438 17.5683C30.9118 20.5901 28.5644 22.1048 25.2795 22.1048C20.298 22.1048 17.4392 18.2554 17.4392 14.203C17.4392 10.1506 20.4684 6.18405 25.1633 6.18405C29.4398 6.18405 32.8874 9.29169 32.9493 14.3123H19.4225H19.4148ZM30.8188 12.6023C30.0286 9.46347 27.7896 8.06581 25.1865 8.06581C22.5834 8.06581 20.4917 9.51812 19.6085 12.6023H30.8188Z" fill="#D92C27"/>
<path d="M37.3576 9.35415C38.8606 7.24596 40.9213 6.19186 43.3308 6.19186C47.7157 6.19186 51.1168 9.81483 51.1168 14.1249C51.1168 18.435 47.8087 22.1127 43.3927 22.1127C41.0453 22.1127 39.0078 21.1445 37.3653 19.1456V27.2738H35.444V6.58226H37.3653V9.34635L37.3576 9.35415ZM37.2104 14.2264C37.2104 17.99 40.1001 20.3324 43.1836 20.3324C46.5227 20.3324 49.1257 17.4824 49.1257 14.1718C49.1257 10.8611 46.6389 8.06581 43.1836 8.06581C39.7283 8.06581 37.2104 10.7206 37.2104 14.2264Z" fill="#D92C27"/>
<path d="M64.4344 20.1372C63.1019 21.449 61.6919 22.1361 59.7938 22.1361C55.9744 22.1361 52.6353 18.8254 52.6353 14.1796C52.6353 9.53374 55.8039 6.19186 59.7086 6.19186C61.5215 6.19186 63.0787 6.87897 64.4344 8.2454V6.59007H68.1996V21.7379H64.4344V20.1372ZM56.4237 14.1405C56.4237 16.7328 58.1204 18.6458 60.4678 18.6458C62.8153 18.6458 64.5971 16.8812 64.5971 14.1093C64.5971 11.3374 62.8463 9.65867 60.4678 9.65867C58.0894 9.65867 56.4237 11.6576 56.4237 14.1405Z" fill="#D92C27"/>
<path d="M85.7473 19.5672C85.7473 22.5031 85.1818 24.4707 83.4541 25.9543C82.0983 27.0943 80.2855 27.6408 77.9923 27.6408C73.8629 27.6408 71.2288 26.0167 70.2062 22.8466H74.3665C75.1335 23.7602 76.2646 24.1584 77.8451 24.1584C79.2318 24.1584 80.3629 23.7914 81.0447 23.159C81.9511 22.3001 81.9821 21.2772 81.9821 19.8483C80.7348 21.0742 79.379 21.7301 77.4267 21.7301C73.3826 21.7301 70.2062 18.4819 70.2062 13.9453C70.2062 9.40881 73.4058 6.18405 77.2253 6.18405C79.0924 6.18405 80.5644 6.89459 81.9821 8.23759V6.58226H85.7473V19.5594V19.5672ZM74.0024 13.9766C74.0024 16.483 75.7843 18.2554 78.1317 18.2554C80.4791 18.2554 82.1758 16.5689 82.1758 14.0078C82.1758 11.4467 80.5644 9.67429 78.0697 9.67429C75.5751 9.67429 73.9946 11.6419 73.9946 13.9844L74.0024 13.9766Z" fill="#D92C27"/>
<path d="M122.57 8.49526C123.275 6.92582 124.492 6.18405 125.739 6.18405C126.529 6.18405 127.01 6.41048 127.381 6.58226L126.219 9.83045C125.94 9.6899 125.514 9.51812 125.119 9.51812C124.042 9.51812 123.198 10.7752 123.113 13.0006C123.082 13.8282 123.082 14.7652 123.082 15.5929V21.7223H119.316V6.58226H122.57V8.49526Z" fill="#D92C27"/>
<path d="M139.235 20.1372C137.902 21.449 136.492 22.1361 134.594 22.1361C130.775 22.1361 127.436 18.8254 127.436 14.1796C127.436 9.53374 130.604 6.19186 134.509 6.19186C136.322 6.19186 137.879 6.87897 139.235 8.2454V6.59007H143V21.7379H139.235V20.1372ZM131.224 14.1405C131.224 16.7328 132.921 18.6458 135.268 18.6458C137.616 18.6458 139.397 16.8812 139.397 14.1093C139.397 11.3374 137.639 9.65867 135.268 9.65867C132.897 9.65867 131.224 11.6576 131.224 14.1405Z" fill="#D92C27"/>
<path d="M100.467 28C100.041 27.9297 99.6151 27.8985 99.1967 27.8126C97.5698 27.4769 96.0358 26.8834 94.6181 26.0089C94.2772 25.7981 93.9441 25.5717 93.6109 25.3218C93.6807 25.2828 93.7116 25.3218 93.7504 25.3374C94.8118 25.9621 95.9739 26.251 97.1747 26.4149C97.7945 26.5008 98.422 26.5321 99.0495 26.5243C100.026 26.5243 101.002 26.4462 101.978 26.3134C104.256 25.9933 106.471 25.4389 108.641 24.6893C109.997 24.2209 111.337 23.7211 112.584 23.0106C112.685 22.9559 112.786 22.8857 112.948 22.7998C112.793 23.0887 112.6 23.2683 112.421 23.4557C111.592 24.3614 110.671 25.1656 109.632 25.8215C108.935 26.2588 108.176 26.5633 107.409 26.8444C105.867 27.4066 104.279 27.7814 102.644 27.9453C102.497 27.961 102.35 27.9297 102.203 27.9922H100.467V28Z" fill="#D92C27"/>
<path d="M93.9286 2.26436C93.5567 2.52203 93.2158 2.76408 92.8982 3.03737C91.8833 3.90407 91.0156 4.89571 90.5275 6.16843C90.2718 6.83213 90.1866 7.51924 90.5275 8.19074C90.7599 8.64361 91.1395 8.94813 91.5734 9.18238C92.3171 9.58059 93.1229 9.74456 93.9441 9.83826C94.6723 9.92415 95.4083 9.94757 96.1366 9.92415C97.7557 9.86949 99.3439 9.64306 100.924 9.2995C104.202 8.58896 107.347 7.47239 110.438 6.18405C111.221 5.85611 111.995 5.51255 112.77 5.18461C112.902 5.12995 113.111 5.04406 113.111 5.04406C113.111 5.04406 113.343 5.31735 113.475 5.51255C113.979 6.25432 114.35 6.93363 114.73 7.75349C115.071 8.49526 115.35 9.17457 115.575 9.95538C115.59 10.01 115.613 10.1115 115.613 10.1115C115.613 10.1115 115.536 10.1428 115.474 10.1662C112.987 11.1969 110.485 12.2041 107.92 13.0162C105.17 13.8829 102.389 14.5778 99.5299 14.9526C98.3213 15.1166 97.1127 15.2103 95.8886 15.2337C94.7188 15.2571 93.5489 15.2181 92.4023 15.0073C91.3565 14.8199 90.3648 14.4997 89.5203 13.8204C88.7301 13.1801 88.3273 12.3369 88.273 11.314C88.2188 10.1818 88.5674 9.14334 89.009 8.12828C89.807 6.27775 90.9536 4.67708 92.4256 3.31065C92.813 2.95148 93.0144 2.82655 93.5335 2.46737C93.5954 2.42833 93.8046 2.31121 93.9208 2.26436H93.9286Z" fill="#D92C27"/>
<path d="M88.0251 15.0619C88.1568 15.4211 88.273 15.7803 88.4667 16.116C88.9393 16.9281 89.6211 17.498 90.4345 17.9353C91.5037 18.5131 92.6658 18.7942 93.8588 18.9738C95.0287 19.1456 96.1985 19.1924 97.3761 19.1456C99.0883 19.0753 100.785 18.8645 102.466 18.5443C104.659 18.1227 106.805 17.5527 108.927 16.8578C111.314 16.0848 113.653 15.1634 115.946 14.1405C116.008 14.1093 116.078 14.0547 116.14 14.1015C116.21 14.1484 116.156 14.2342 116.14 14.3045C116.086 14.9526 116.016 15.6007 115.877 16.2409C115.668 17.1857 115.381 18.1071 115.001 18.9972C114.939 19.1378 114.823 19.2158 114.699 19.2783C113.467 19.9732 112.158 20.5042 110.833 20.9961C108.997 21.6754 107.122 22.2532 105.216 22.7139C103.512 23.1277 101.784 23.44 100.041 23.6196C99.2045 23.7055 98.3678 23.7602 97.5311 23.7446C96.1443 23.7211 94.7653 23.604 93.425 23.1746C92.4411 22.8544 91.5424 22.3938 90.7677 21.691C90.2951 21.2616 89.9464 20.7384 89.6598 20.1762C88.9006 18.7083 88.3118 17.1779 88.0716 15.5304C88.0638 15.4757 88.0561 15.4211 88.0484 15.3586C88.0329 15.2649 88.0251 15.1634 88.0174 15.0697L88.0251 15.0619Z" fill="#D92C27"/>
<path d="M95.4625 1.83491C95.3541 1.99108 95.2611 2.09258 95.1991 2.21751C95.0287 2.52984 95.1294 2.78751 95.4625 2.91244C95.7182 3.01394 95.9893 3.02175 96.2528 3.01394C97.593 2.95148 98.8791 2.60792 100.157 2.21751C101.73 1.74122 103.272 1.17122 104.736 0.413832C104.876 0.343558 105.015 0.249861 105.147 0.171779C105.317 0.0702733 105.433 0 105.433 0C105.433 0 105.673 0.054657 105.805 0.0936977C107.308 0.538762 108.718 1.18684 110.012 2.08477C110.12 2.15505 110.237 2.24094 110.237 2.24094C110.237 2.24094 110.105 2.3034 109.981 2.35806C108.013 3.28723 106.014 4.1227 103.961 4.83324C102.272 5.41885 100.56 5.91076 98.8016 6.21528C97.8022 6.38706 96.7951 6.50418 95.7802 6.48857C95.0752 6.48076 94.3702 6.41829 93.7039 6.17624C93.394 6.06693 93.1073 5.91076 92.8827 5.66871C92.5495 5.30173 92.4798 4.87228 92.627 4.39598C92.7897 3.85722 93.1228 3.42777 93.518 3.04518C94.0448 2.52984 94.6568 2.13943 95.3386 1.86615C95.3618 1.85834 95.3928 1.85053 95.4703 1.83491H95.4625Z" fill="#D92C27"/>
</g>
<defs>
<clipPath id="clip0_1_1018">
<rect width="143" height="28" fill="white"/>
</clipPath>
</defs>
</svg>
