<svg width="223" height="242" viewBox="0 0 223 242" fill="none" xmlns="http://www.w3.org/2000/svg">
<path d="M78.731 241.038C74.8386 240.433 70.9462 240.164 67.1246 239.424C52.2628 236.534 38.2502 231.425 25.2992 223.897C22.1853 222.082 19.1422 220.133 16.0991 217.982C16.736 217.646 17.0191 217.982 17.373 218.116C27.0685 223.494 37.6841 225.981 48.6535 227.392C54.3152 228.132 60.0476 228.401 65.78 228.333C74.6971 228.333 83.6143 227.661 92.5313 226.519C113.338 223.763 133.578 218.99 153.394 212.537C165.779 208.504 178.022 204.203 189.416 198.086C190.336 197.615 191.256 197.01 192.742 196.271C191.327 198.758 189.558 200.304 187.93 201.917C180.358 209.714 171.936 216.638 162.453 222.284C156.083 226.048 149.148 228.67 142.141 231.089C128.058 235.929 113.55 239.155 98.6176 240.567C97.273 240.701 95.9283 240.433 94.5836 240.97H78.731V241.038Z" fill="#E9E9E9"/>
<path d="M18.994 19.5007C15.597 21.7188 12.4832 23.8026 9.58157 26.1552C0.310623 33.6163 -7.61572 42.1528 -12.0743 53.1092C-14.4097 58.8227 -15.1882 64.7378 -12.0743 70.5184C-9.95115 74.417 -6.4834 77.0385 -2.52025 79.055C4.27373 82.4831 11.6339 83.8946 19.1356 84.7012C25.788 85.4406 32.5112 85.6423 39.1636 85.4406C53.9547 84.9701 68.4627 83.0208 82.8999 80.0632C112.836 73.9465 141.569 64.3345 169.806 53.2436C176.954 50.4205 184.031 47.463 191.108 44.6399C192.311 44.1693 194.222 43.4299 194.222 43.4299C194.222 43.4299 196.345 45.7825 197.548 47.463C202.148 53.8486 205.545 59.6965 209.013 66.7543C212.127 73.1399 214.675 78.9878 216.727 85.7095C216.869 86.18 217.081 87.0538 217.081 87.0538C217.081 87.0538 216.373 87.3227 215.807 87.5243C193.09 96.397 170.231 105.068 146.806 112.059C121.682 119.52 96.2755 125.502 70.1612 128.728C59.121 130.14 48.0807 130.947 36.899 131.148C26.2126 131.35 15.5262 131.014 5.0522 129.199C-4.50183 127.586 -13.5604 124.83 -21.2744 118.982C-28.493 113.47 -32.1731 106.211 -32.6685 97.4053C-33.1639 87.6588 -29.9792 78.7189 -25.9453 69.9807C-18.6559 54.0502 -8.18185 40.2707 5.26456 28.5078C8.80309 25.4158 10.6431 24.3403 15.3848 21.2483C15.9509 20.9122 17.8617 19.904 18.9233 19.5007H18.994Z" fill="#E9E9E9"/>
<path d="M-34.9292 129.658C-33.7261 132.75 -32.6646 135.842 -30.8953 138.732C-26.5783 145.723 -20.3505 150.63 -12.9196 154.394C-3.15321 159.368 7.46236 161.788 18.361 163.334C29.0474 164.812 39.7338 165.216 50.4909 164.812C66.1312 164.207 81.6299 162.393 96.9871 159.637C117.015 156.007 136.619 151.1 156.01 145.118C177.807 138.463 199.18 130.532 220.128 121.726C220.694 121.457 221.331 120.987 221.897 121.39C222.534 121.794 222.039 122.533 221.897 123.138C221.402 128.717 220.765 134.296 219.491 139.808C217.58 147.941 214.962 155.873 211.494 163.535C210.928 164.745 209.866 165.417 208.734 165.955C197.481 171.937 185.521 176.508 173.419 180.743C156.647 186.591 139.52 191.565 122.111 195.531C106.541 199.093 90.7594 201.782 74.836 203.328C67.1928 204.067 59.5495 204.538 51.9063 204.403C39.2383 204.202 26.6412 203.193 14.3978 199.496C5.40998 196.741 -2.79936 192.775 -9.87642 186.725C-14.1934 183.028 -17.3781 178.525 -19.9966 173.685C-26.9321 161.048 -32.3107 147.874 -34.5046 133.691C-34.5754 133.22 -34.6461 132.75 -34.7169 132.212C-34.8585 131.406 -34.9292 130.532 -35 129.725L-34.9292 129.658Z" fill="#E9E9E9"/>
<path d="M33.0036 15.796C32.0129 17.1404 31.1636 18.0142 30.5974 19.0896C29.0405 21.7783 29.9605 23.9965 33.0036 25.072C35.3391 25.9458 37.816 26.013 40.2222 25.9458C52.4655 25.4081 64.2135 22.4505 75.8906 19.0896C90.257 14.9894 104.34 10.0826 117.716 3.5625C118.99 2.95755 120.264 2.15095 121.467 1.47878C123.024 0.604954 124.085 0 124.085 0C124.085 0 126.279 0.470519 127.482 0.806605C141.212 4.63798 154.092 10.217 165.911 17.947C166.902 18.5519 167.963 19.2913 167.963 19.2913C167.963 19.2913 166.76 19.829 165.628 20.2996C147.652 28.2984 129.393 35.4906 110.639 41.6074C95.211 46.6486 79.5707 50.8833 63.5058 53.5048C54.3764 54.9836 45.1762 55.9918 35.9052 55.8574C29.4651 55.7902 23.025 55.2524 16.9387 53.1687C14.1079 52.2277 11.4894 50.8833 9.43703 48.7996C6.3939 45.6404 5.75695 41.9435 7.10159 37.8432C8.58777 33.2052 11.6309 29.5083 15.2402 26.2147C20.0526 21.7783 25.6435 18.4175 31.8713 16.0649C32.0836 15.9977 32.3667 15.9304 33.0744 15.796H33.0036Z" fill="#E9E9E9"/>
</svg>
